HIERARCHY
ROOT Hips
{
	OFFSET -0.001795 -0.223333 0.028219
	CHANNELS 6 Xposition Yposition Zposition Zrotation Yrotation Xrotation
	JOINT LeftUpLeg
	{
		OFFSET 0.069520 -0.091406 -0.006815
		CHANNELS 3 Zrotation Yrotation Xrotation
		JOINT LeftLeg
		{
			OFFSET 0.034277 -0.375199 -0.004496
			CHANNELS 3 Zrotation Yrotation Xrotation
			JOINT LeftFoot
			{
				OFFSET -0.013596 -0.397961 -0.043693
				CHANNELS 3 Zrotation Yrotation Xrotation
				JOINT LeftToe
				{
					OFFSET 0.026358 -0.055791 0.119288
					CHANNELS 3 Zrotation Yrotation Xrotation
					End Site
					{
						OFFSET 0.000000 0.000000 0.000000
					}
				}
			}
		}
	}
	JOINT RightUpLeg
	{
		OFFSET -0.067670 -0.090522 -0.004320
		CHANNELS 3 Zrotation Yrotation Xrotation
		JOINT RightLeg
		{
			OFFSET -0.038290 -0.382569 -0.008850
			CHANNELS 3 Zrotation Yrotation Xrotation
			JOINT RightFoot
			{
				OFFSET 0.015774 -0.398415 -0.042312
				CHANNELS 3 Zrotation Yrotation Xrotation
				JOINT RightToe
				{
					OFFSET -0.025372 -0.048144 0.123348
					CHANNELS 3 Zrotation Yrotation Xrotation
					End Site
					{
						OFFSET 0.000000 0.000000 0.000000
					}
				}
			}
		}
	}
	JOINT Spine
	{
		OFFSET -0.002533 0.108963 -0.026696
		CHANNELS 3 Zrotation Yrotation Xrotation
		JOINT Spine1
		{
			OFFSET 0.005487 0.135180 0.001092
			CHANNELS 3 Zrotation Yrotation Xrotation
			JOINT Spine2
			{
				OFFSET 0.001457 0.052922 0.025425
				CHANNELS 3 Zrotation Yrotation Xrotation
				JOINT Neck
				{
					OFFSET -0.002778 0.213870 -0.042857
					CHANNELS 3 Zrotation Yrotation Xrotation
					JOINT Head
					{
						OFFSET 0.005152 0.064970 0.051349
						CHANNELS 3 Zrotation Yrotation Xrotation
						End Site
						{
							OFFSET 0.000000 0.000000 0.000000
						}
					}
				}
				JOINT LeftShoulder
				{
					OFFSET 0.078845 0.121749 -0.034090
					CHANNELS 3 Zrotation Yrotation Xrotation
					JOINT LeftArm
					{
						OFFSET 0.090977 0.030469 -0.008868
						CHANNELS 3 Zrotation Yrotation Xrotation
						JOINT LeftForeArm
						{
							OFFSET 0.259612 -0.012772 -0.027456
							CHANNELS 3 Zrotation Yrotation Xrotation
							JOINT LeftHand
							{
								OFFSET 0.249234 0.008986 -0.001171
								CHANNELS 3 Zrotation Yrotation Xrotation
								End Site
								{
									OFFSET 0.000000 0.000000 0.000000
								}
							}
						}
					}
				}
				JOINT RightShoulder
				{
					OFFSET -0.081759 0.118833 -0.038615
					CHANNELS 3 Zrotation Yrotation Xrotation
					JOINT RightArm
					{
						OFFSET -0.096012 0.032551 -0.009143
						CHANNELS 3 Zrotation Yrotation Xrotation
						JOINT RightForeArm
						{
							OFFSET -0.253742 -0.013329 -0.021401
							CHANNELS 3 Zrotation Yrotation Xrotation
							JOINT RightHand
							{
								OFFSET -0.255298 0.007772 -0.005559
								CHANNELS 3 Zrotation Yrotation Xrotation
								End Site
								{
									OFFSET 0.000000 0.000000 0.000000
								}
							}
						}
					}
				}
			}
		}
	}
}
MOTION
Frames: 16
Frame Time: 0.050000
0.000000 0.891461 0.000000 -2.161739 24.801063 2.039088 15.710282 -1.164229 -10.380676 -10.550538 0.643014 9.716293 7.966800 13.275812 -4.300606 0.000000 0.000000 0.000000 -21.199102 -2.738468 -10.187448 10.939344 -2.894815 9.299311 -12.870669 -23.821795 22.025271 0.000000 0.000000 0.000000 -0.424406 -1.076526 15.397114 6.734962 -0.528770 -23.281147 3.504047 -1.962638 20.167759 4.771938 -2.002848 -8.740718 0.000000 0.000000 0.000000 -16.050592 -6.618160 -0.509528 -44.789095 -26.117069 2.782541 -153.176193 -65.840606 140.639412 0.000000 0.000000 0.000000 2.869610 8.016981 3.532056 41.784135 10.564122 -1.777124 -78.606014 47.538907 -29.026245 0.000000 0.000000 0.000000
-0.000065 0.891046 -0.000898 -2.724671 25.041550 2.325715 15.991214 -1.186016 -11.848518 -10.042983 0.584706 11.136821 8.061497 13.399184 -4.557222 0.000000 0.000000 0.000000 -21.572514 -3.049760 -11.639809 12.002864 -3.431777 10.813752 -12.450393 -22.923202 22.899840 0.000000 0.000000 0.000000 -0.600688 -0.845496 13.392356 5.643268 -0.221376 -23.838001 4.859186 -1.691129 21.481105 7.670454 -4.907084 -6.497060 0.000000 0.000000 0.000000 -15.784220 -7.006098 -0.421888 -45.397388 -28.963818 3.729655 -157.492455 -65.805280 146.821878 0.000000 0.000000 0.000000 1.045967 8.270063 3.323872 42.387283 7.365269 -2.787146 -82.345904 45.052902 -28.372649 0.000000 0.000000 0.000000
-0.000210 0.888947 -0.001632 -2.438943 24.783854 2.243257 15.283266 -1.149858 -12.065283 -9.345697 0.493479 12.052087 8.359598 13.662508 -5.286615 0.000000 0.000000 0.000000 -21.825530 -3.065362 -11.205573 12.086294 -3.314094 9.786518 -13.045619 -23.755137 23.227706 0.000000 0.000000 0.000000 -0.874010 -0.846522 13.859652 7.619064 -0.665601 -25.154737 3.670438 0.425755 22.006873 7.605745 -4.348486 -7.507952 0.000000 0.000000 0.000000 -16.624689 -7.618079 -0.815429 -44.584025 -31.686289 4.751656 -166.381593 -67.213493 159.621270 0.000000 0.000000 0.000000 1.658262 8.206384 3.510902 40.426263 6.254626 -3.237085 -88.058298 41.500947 -26.953385 0.000000 0.000000 0.000000
-0.000461 0.886006 -0.002426 -2.953566 25.581195 1.875528 15.971607 -1.206023 -13.712743 -9.691831 0.455621 14.796495 8.446903 13.476121 -6.196168 0.000000 0.000000 0.000000 -22.417503 -3.346835 -11.454355 13.031574 -3.695710 10.149477 -13.126960 -23.263224 25.590846 0.000000 0.000000 0.000000 -0.652454 -0.869816 13.608481 7.133015 -0.600511 -23.930126 4.397253 0.184687 20.816619 8.761086 -5.720644 -6.071182 0.000000 0.000000 0.000000 -16.420570 -7.552653 -0.879563 -44.970544 -32.934040 5.371202 -167.342585 -67.972128 161.091403 0.000000 0.000000 0.000000 -1.271546 7.667039 2.682417 41.807399 5.061679 -3.242003 -88.261559 37.459233 -22.992388 0.000000 0.000000 0.000000
-0.000872 0.882748 -0.003181 -2.948706 25.864129 1.682998 15.737393 -1.220945 -15.580103 -9.395773 0.275292 18.306854 8.654846 13.748064 -6.872782 0.000000 0.000000 0.000000 -22.826571 -3.573480 -11.968170 13.721025 -3.854009 9.732222 -15.655169 -25.740818 30.058780 0.000000 0.000000 0.000000 -0.928147 -0.930898 14.490381 6.633852 -0.443339 -24.491874 4.687508 0.372428 20.287033 8.510701 -5.656548 -5.510193 0.000000 0.000000 0.000000 -14.726711 -8.759186 0.008045 -44.685480 -35.206259 5.993309 -176.626994 -68.848451 174.780124 0.000000 0.000000 0.000000 -0.984136 7.729575 2.769620 40.435891 3.543734 -3.640891 -87.555065 34.254653 -19.949105 0.000000 0.000000 0.000000
-0.000929 0.878393 -0.004101 -3.719577 26.185873 1.776919 17.038443 -1.288738 -18.068730 -10.492494 0.331290 21.569054 8.938815 14.400529 -7.481652 0.000000 0.000000 0.000000 -22.671403 -3.761257 -13.232873 14.219848 -4.052178 9.913260 -17.328624 -26.848833 34.114318 0.000000 0.000000 0.000000 -1.131992 -0.948356 14.783782 6.919030 -0.528815 -24.278376 5.457875 0.365897 19.826327 9.226073 -6.249697 -5.570369 0.000000 0.000000 0.000000 -13.943730 -8.681609 0.112048 -45.293864 -37.399957 6.840369 178.781437 -69.573589 -178.476135 0.000000 0.000000 0.000000 -1.930629 8.021022 2.686139 40.181256 3.673080 -3.482557 -86.114240 31.097034 -16.542434 0.000000 0.000000 0.000000
-0.000569 0.873440 -0.004980 -3.840847 25.977943 2.038440 17.311004 -1.317625 -20.336882 -11.026616 0.307240 25.001585 9.334868 15.455075 -7.961848 0.000000 0.000000 0.000000 -23.287112 -4.166406 -14.778984 15.390393 -4.618544 11.211996 -18.640220 -28.113597 35.500119 0.000000 0.000000 0.000000 -1.030623 -1.073095 15.826588 6.454374 -0.393322 -24.445441 5.676605 0.708598 18.976007 9.670278 -6.626322 -5.576227 0.000000 0.000000 0.000000 -13.441640 -9.472314 0.571497 -44.941448 -37.953138 6.981913 175.270668 -67.961182 -173.148184 0.000000 0.000000 0.000000 -0.854558 8.200361 2.988354 38.660944 3.505441 -3.531475 -85.695544 30.262526 -15.901616 0.000000 0.000000 0.000000
0.000116 0.865732 -0.005601 -4.411533 26.242342 2.218919 17.978640 -1.397022 -22.925559 -11.530222 0.227587 28.625407 9.800278 16.411590 -9.239917 0.000000 0.000000 0.000000 -23.968727 -4.781479 -16.772572 17.488260 -5.809026 13.572845 -20.552684 -30.095906 36.299235 0.000000 0.000000 0.000000 -0.727058 -1.342986 17.555265 6.468898 -0.376151 -24.791428 6.156144 1.591932 18.346252 11.251595 -7.784512 -5.975721 0.000000 0.000000 0.000000 -13.400106 -10.143195 0.715678 -44.784477 -39.510805 7.554922 171.887062 -66.187137 -167.977429 0.000000 0.000000 0.000000 -0.252759 8.232198 3.149098 37.919373 3.989238 -3.336797 -83.803109 28.726443 -13.835749 0.000000 0.000000 0.000000
0.000986 0.856467 -0.006052 -4.579788 26.421867 2.357883 18.712128 -1.451148 -25.230573 -12.923660 0.441000 32.127975 10.257655 17.523308 -10.583879 0.000000 0.000000 0.000000 -25.072185 -5.493057 -18.344681 19.119916 -6.957245 16.025267 -21.060010 -30.843162 35.622618 0.000000 0.000000 0.000000 -0.609410 -1.612306 19.343272 5.962324 -0.239224 -25.094185 6.732555 2.334727 18.110559 12.617850 -8.705463 -6.581512 0.000000 0.000000 0.000000 -13.071282 -10.755854 0.941740 -44.121640 -41.713766 8.145377 168.539870 -65.617589 -162.829197 0.000000 0.000000 0.000000 -0.011503 8.465580 3.309482 37.780437 4.211375 -3.253273 -81.915143 27.788812 -12.404110 0.000000 0.000000 0.000000
0.001725 0.844860 -0.006370 -4.848395 25.417066 2.659317 20.047616 -1.319286 -27.140968 -15.031932 1.177052 35.206807 11.006166 19.670875 -12.350296 0.000000 0.000000 0.000000 -26.037971 -6.371318 -21.413943 20.815730 -8.423060 19.762637 -21.538558 -31.657839 35.018885 0.000000 0.000000 0.000000 -1.048591 -1.764562 21.259876 6.547633 -0.372310 -25.755956 7.441311 3.885133 17.557988 14.206733 -9.929511 -6.831707 0.000000 0.000000 0.000000 -13.321553 -11.402923 1.049366 -44.075464 -42.439169 8.478966 168.922344 -63.684261 -162.929883 0.000000 0.000000 0.000000 1.348072 8.709390 3.749379 36.791334 5.650264 -2.903643 -78.749153 27.307075 -11.247942 0.000000 0.000000 0.000000
0.002400 0.833163 -0.006600 -5.119444 24.475432 2.959011 21.090866 -1.165636 -29.184088 -16.607667 1.884321 38.523274 11.590979 21.724867 -13.896139 0.000000 0.000000 0.000000 -26.959905 -7.168321 -23.917649 22.251685 -9.779035 23.035625 -20.823756 -31.538199 32.916787 0.000000 0.000000 0.000000 -1.489919 -1.847851 22.767371 6.588374 -0.382560 -26.146965 8.487558 3.932404 17.751681 14.783571 -10.482663 -6.921468 0.000000 0.000000 0.000000 -13.962789 -11.338098 1.069518 -44.906818 -44.435401 9.517743 169.094151 -62.649119 -162.029990 0.000000 0.000000 0.000000 2.428304 9.654248 4.367696 37.354701 6.604725 -2.823026 -77.904487 27.976552 -11.830666 0.000000 0.000000 0.000000
0.002888 0.817348 -0.006184 -5.310379 21.025986 3.446324 23.458916 -0.428404 -30.886995 -20.174917 4.169223 42.181053 12.512392 25.582081 -14.855668 0.000000 0.000000 0.000000 -27.829654 -7.758189 -27.650026 24.580621 -11.418331 27.031640 -21.052172 -35.613388 22.259925 0.000000 0.000000 0.000000 -1.892922 -1.832743 24.645500 7.530272 -0.650929 -26.045374 9.160517 5.472890 17.454324 14.899445 -11.275199 -5.199715 0.000000 0.000000 0.000000 -15.020343 -11.905568 1.308093 -43.761744 -44.776480 9.558750 168.683889 -61.419005 -160.316485 0.000000 0.000000 0.000000 3.412779 10.161083 4.780999 37.907103 8.003347 -2.506518 -78.626886 31.417569 -14.954038 0.000000 0.000000 0.000000
0.002990 0.796403 -0.004924 -4.937781 17.167149 4.683831 25.058292 0.470208 -32.897268 -23.059174 6.840693 45.905919 13.471768 29.781774 -16.917182 0.000000 0.000000 0.000000 -29.182624 -8.676477 -32.615698 26.427854 -12.607001 30.823319 -25.582626 -42.686488 20.514667 0.000000 0.000000 0.000000 -2.687099 -1.660593 26.897045 8.847545 -0.972921 -26.459559 8.873473 6.102515 17.183684 14.974043 -12.629241 -2.293949 0.000000 0.000000 0.000000 -16.589646 -12.081314 1.629320 -41.079755 -44.224325 8.791272 169.956588 -59.796506 -160.453776 0.000000 0.000000 0.000000 6.987655 11.179826 5.915017 35.681352 9.325951 -2.341115 -79.020869 35.053680 -19.172861 0.000000 0.000000 0.000000
0.002965 0.767688 -0.002855 -4.953034 9.972370 5.666263 28.010361 2.546596 -34.200208 -26.544826 11.740520 50.897969 14.944734 35.208640 -17.749375 0.000000 0.000000 0.000000 -30.531834 -9.047959 -39.826936 29.796665 -14.057227 35.328536 -29.095311 -47.662237 20.423967 0.000000 0.000000 0.000000 -3.026108 -1.338475 30.479975 9.739941 -1.275111 -26.229945 9.663091 7.372691 16.565177 12.690592 -10.927221 -0.955503 0.000000 0.000000 0.000000 -18.141940 -12.193587 2.280831 -37.670413 -43.356303 7.742719 169.496681 -56.841477 -156.452887 0.000000 0.000000 0.000000 7.420755 12.451043 6.245175 36.590000 12.447644 -1.415325 -80.513330 38.298914 -23.350937 0.000000 0.000000 0.000000
0.003030 0.728464 0.000835 -4.853779 4.336646 6.656723 30.959720 4.851065 -35.897847 -29.395173 17.159969 56.707331 15.779804 39.304694 -20.804062 0.000000 0.000000 0.000000 -34.022350 -10.106501 -45.810748 36.558897 -16.315217 35.825201 -35.618530 -53.204170 24.864589 0.000000 0.000000 0.000000 -1.776994 -1.459701 34.903880 11.141783 -1.544011 -26.935739 8.606322 7.801382 17.094575 10.802334 -9.133920 -1.144276 0.000000 0.000000 0.000000 -21.467316 -11.753533 2.520448 -33.708301 -44.178077 6.895895 168.672545 -56.107196 -152.769655 0.000000 0.000000 0.000000 8.118233 13.215825 6.441074 36.181967 15.702972 -0.552979 -85.635701 40.830868 -28.799941 0.000000 0.000000 0.000000
0.002825 0.682593 0.008643 -5.239309 -2.386068 7.253886 32.982823 7.785969 -37.655709 -28.008865 21.990430 66.475772 17.327648 43.177797 -20.983340 0.000000 0.000000 0.000000 -38.213594 -10.954635 -52.712828 46.249156 -19.472231 35.005718 -41.419820 -57.194240 29.314813 0.000000 0.000000 0.000000 -0.197523 -1.370021 39.876093 11.920432 -1.608961 -28.067527 8.487852 6.628127 17.826736 8.077887 -6.407618 -2.905164 0.000000 0.000000 0.000000 -22.856271 -12.177343 4.164886 -31.010297 -46.649958 6.524738 163.323922 -55.886161 -140.659196 0.000000 0.000000 0.000000 6.596835 15.041282 6.464621 35.767125 19.902251 0.648037 -87.135047 41.794471 -32.215528 0.000000 0.000000 0.000000
